<svg version="1.1" id="Layer_1" xmlns="http://www.w3.org/2000/svg" xmlns:xlink="http://www.w3.org/1999/xlink" x="0px" y="0px"
	 width="100%" viewBox="0 0 1024 576" enable-background="new 0 0 1024 576" xml:space="preserve">
<path fill="#000000" opacity="1.000000" stroke="none" 
	d="
M534.386719,457.870605 
	C532.261169,456.233673 531.528992,454.473969 531.401917,452.070801 
	C531.202393,448.297485 528.733948,445.895874 525.022156,445.829224 
	C517.606506,445.696075 512.656128,440.725372 514.008362,433.608368 
	C514.915466,428.834381 513.978333,426.147736 508.957123,424.725647 
	C504.616608,423.496307 501.874115,414.790863 504.378601,410.500305 
	C506.578979,406.730743 506.078796,404.516449 502.083649,402.635956 
	C497.581360,400.516663 495.685822,394.373779 497.588348,389.277771 
	C500.293823,382.031006 492.200562,370.171539 484.621887,370.523041 
	C480.849976,370.697968 478.243439,373.290588 476.145660,376.135590 
	C473.065002,380.313507 470.940552,385.033478 469.127594,389.887604 
	C468.463593,391.665405 468.430115,393.211487 469.402435,395.087585 
	C472.903229,401.842621 470.552185,407.640961 463.572571,410.961670 
	C460.756256,412.301575 460.484528,415.072357 461.162140,417.840790 
	C463.106812,425.785797 460.511963,430.083435 452.582733,432.440887 
	C449.476013,433.364563 448.328156,435.847290 448.711090,439.048950 
	C449.546570,446.033813 445.135345,450.857025 438.281006,450.703979 
	C434.919617,450.628937 432.711426,452.188324 432.087280,455.782593 
	C430.973755,462.194794 424.758545,465.680908 418.670715,463.188751 
	C415.413818,461.855530 412.619781,462.574707 410.477905,464.817291 
	C407.056732,468.399323 402.893890,468.611755 398.992859,467.083923 
	C395.503235,465.717194 392.027924,465.203033 388.435638,464.639526 
	C364.765350,460.926208 352.233368,429.323303 367.015167,410.692444 
	C367.939270,409.527710 368.996887,408.425537 370.158569,407.503632 
	C371.643707,406.324982 373.379822,405.542267 375.208466,406.787170 
	C377.141754,408.103210 377.346710,410.036743 376.716919,412.124115 
	C376.332123,413.399384 375.813080,414.635864 375.460571,415.918915 
	C372.718109,425.901428 376.205933,436.164520 383.984589,441.079895 
	C390.966156,445.491577 402.023071,444.064514 409.622772,437.877502 
	C421.207520,428.446350 426.699738,415.677765 430.024689,401.570770 
	C432.098694,392.771454 433.158051,383.865448 433.704987,374.890717 
	C434.079529,368.744415 430.329498,365.811371 424.507935,367.712158 
	C418.488373,369.677582 412.718170,372.319427 407.151337,375.365509 
	C405.474457,376.283112 404.550232,377.590668 404.009247,379.565857 
	C402.227386,386.071320 394.886810,388.794250 388.920990,385.437286 
	C385.671295,383.608734 382.901611,383.015564 380.898407,387.456818 
	C378.855804,391.985413 369.672791,393.155853 366.633362,389.257080 
	C363.599640,385.365631 361.144196,384.155701 356.929230,387.965485 
	C352.923126,391.586395 344.267609,388.046234 344.056213,382.769714 
	C343.878845,378.343140 341.295837,377.491913 338.016571,377.149872 
	C331.221344,376.441071 327.239929,371.089569 329.221588,364.750427 
	C330.039734,362.133270 329.545532,360.424408 327.471069,358.643982 
	C322.698212,354.547668 322.274200,348.717712 326.325317,343.793732 
	C328.070282,341.672821 328.367676,339.461639 326.859711,337.417389 
	C323.603485,333.003052 323.982178,328.519684 325.890350,323.813995 
	C326.182648,323.093231 326.357605,322.210815 326.239655,321.457489 
	C325.718964,318.131409 317.364105,310.285126 314.356506,310.187012 
	C306.979095,309.946411 300.611694,314.207520 299.164490,320.582367 
	C298.579041,323.161316 298.439240,325.844971 298.151855,328.487000 
	C297.899353,330.808136 298.017914,333.488220 295.075409,334.097412 
	C291.821167,334.771179 290.269409,332.378662 289.064850,329.896515 
	C283.424469,318.274017 289.666809,302.039886 302.069733,295.978821 
	C323.662842,285.426727 345.764252,298.449768 347.271088,322.530945 
	C347.697083,329.338867 348.429932,336.129852 349.122711,342.918304 
	C350.222778,353.698090 357.363495,359.374573 368.086304,357.483063 
	C378.319519,355.677917 386.764435,350.294373 393.222900,342.285950 
	C399.469360,334.540375 394.197845,321.087646 384.522797,319.074432 
	C383.403198,318.841461 382.641937,319.403198 381.715363,319.738037 
	C375.325287,322.047363 369.580627,319.165649 367.791840,312.779602 
	C366.705780,308.902405 363.955231,308.176819 360.460449,308.798309 
	C353.248474,310.080750 347.888428,305.195892 348.457428,297.840607 
	C348.728455,294.337036 346.903198,292.623779 343.622559,292.179535 
	C336.253784,291.181763 332.572113,284.470184 335.803284,277.671051 
	C337.394043,274.323761 336.573425,271.491058 334.210419,269.084595 
	C328.918640,263.695526 329.153503,257.758789 335.025146,253.360260 
	C337.494568,251.510406 337.112671,248.986984 336.513641,246.548584 
	C334.759155,239.406586 336.705078,235.514664 343.748718,232.745834 
	C346.183289,231.788818 346.920502,230.087219 346.733673,227.648834 
	C346.087341,219.213593 346.406677,218.679611 353.442078,215.080627 
	C355.560120,213.997147 355.788025,212.005188 355.646210,209.934372 
	C355.533295,208.285736 354.613617,206.269440 355.259888,205.063843 
	C358.308807,199.376236 357.020752,195.403717 353.020325,190.190201 
	C348.114197,183.796341 342.160400,180.284119 334.191193,183.087479 
	C331.210602,184.135956 328.338074,185.488068 325.389648,186.633102 
	C323.791687,187.253693 322.107117,187.598892 320.741333,186.149750 
	C319.267059,184.585480 319.557343,182.797928 320.372620,181.033401 
	C323.906067,173.385529 330.387207,169.197815 338.224731,168.015869 
	C365.153229,163.954941 379.818787,186.531570 376.771454,207.136215 
	C375.306702,217.040131 371.869690,226.465210 368.010071,235.703995 
	C365.497284,241.718964 363.557251,247.854584 363.220276,254.470764 
	C362.523438,268.152466 371.077454,275.379608 381.709564,280.932037 
	C389.302002,284.897003 397.697906,285.423584 406.095428,284.794922 
	C410.874237,284.437195 415.131592,282.502655 418.417145,278.858185 
	C423.227020,273.522888 423.245941,269.016663 418.903290,263.266876 
	C398.719421,236.542801 393.219574,207.161499 403.112518,175.038849 
	C403.504272,173.766846 403.887695,172.490921 404.217041,171.202026 
	C404.289825,170.917114 404.116028,170.569229 403.995880,169.933289 
	C401.338623,168.528244 398.303711,169.253342 395.401184,169.171326 
	C392.243683,169.082123 390.834778,167.969269 391.431274,164.544815 
	C392.744598,157.005356 393.709717,149.404861 395.047852,141.870270 
	C395.610321,138.703262 396.207397,135.694092 394.713409,132.614212 
	C394.038177,131.222198 394.075531,129.538696 394.963165,128.272156 
	C397.842743,124.163559 396.369232,119.550598 396.683014,115.152931 
	C396.857971,112.700920 395.275238,111.693359 393.149475,111.034355 
	C387.104553,109.160385 381.084290,107.204689 375.077179,105.212250 
	C373.224121,104.597626 370.842072,104.167770 370.993835,101.569229 
	C371.123352,99.351273 373.279846,98.922592 375.004517,98.365738 
	C409.387482,87.264267 443.786774,76.213287 478.147827,65.044579 
	C481.676483,63.897629 484.925751,64.000137 488.377289,65.122688 
	C522.571655,76.243774 556.783386,87.311417 590.989929,98.395012 
	C592.739319,98.961853 594.812500,99.403374 595.020142,101.588722 
	C595.239563,103.898811 593.186340,104.578629 591.460510,105.152596 
	C576.924866,109.986649 562.362000,114.738808 547.835083,119.598541 
	C545.392944,120.415520 544.020996,119.759056 543.276672,117.367638 
	C542.534607,114.983093 541.784912,112.596817 540.914795,110.257317 
	C539.984680,107.756599 538.960815,105.266006 535.158386,104.113785 
	C540.609802,109.578896 541.003052,116.351311 542.993286,122.467468 
	C544.691589,127.686226 545.777039,133.101883 547.389587,138.351837 
	C548.614929,142.341339 547.170593,143.473907 543.337952,143.210327 
	C535.714661,142.686050 528.146362,141.837616 520.423157,142.880569 
	C509.289368,144.384079 498.531281,147.102921 488.098602,151.136383 
	C484.950165,152.353638 482.120758,152.496796 478.939087,151.310638 
	C460.637604,144.487610 442.034424,139.833450 422.272034,143.806534 
	C418.557495,144.553329 418.434357,141.878586 419.080658,139.428650 
	C421.118530,131.703171 423.346680,124.027626 425.528046,116.340385 
	C426.235199,113.848267 427.025146,111.379631 428.077728,107.909676 
	C425.587280,110.158325 425.421844,112.227715 424.870087,114.100212 
	C422.942841,120.640701 422.989288,120.556534 416.223236,118.683151 
	C411.789490,117.455513 407.641846,115.135292 401.942474,114.808571 
	C402.943451,130.900986 403.417633,146.644241 407.985931,162.920670 
	C411.498688,158.027420 414.677124,153.886887 417.534729,149.535660 
	C420.197205,145.481613 423.866852,144.025223 428.534485,143.926971 
	C445.404572,143.571915 461.688080,146.684616 477.449432,152.420959 
	C481.970520,154.066406 485.695160,154.124802 490.287598,152.332596 
	C505.466217,146.409058 521.311401,143.471497 537.675415,143.782639 
	C540.954346,143.844986 543.669800,144.813416 545.970764,147.527954 
	C571.948853,178.175232 569.387207,224.132401 554.705505,250.612518 
	C552.380798,254.805450 549.322449,258.622864 546.360718,262.424896 
	C540.241943,270.279541 541.703979,277.898407 550.591064,282.618103 
	C557.827026,286.460938 565.496765,286.544708 572.827271,283.367981 
	C584.966370,278.107361 591.971252,268.827881 592.880798,255.330414 
	C593.747070,242.475769 591.303833,229.716064 591.744446,216.898361 
	C592.149841,205.107422 595.212524,194.238571 604.455505,185.927994 
	C614.745422,176.676071 628.712280,174.514969 640.617737,180.562836 
	C641.947144,181.238129 643.283875,181.986603 644.419556,182.937225 
	C646.750732,184.888535 649.278076,187.099945 647.852600,190.508240 
	C646.208435,194.439438 642.885864,192.835800 640.059387,192.101791 
	C634.181274,190.575287 628.479980,190.860245 623.051392,193.681152 
	C619.667419,195.439560 617.015259,197.757111 617.044617,202.111481 
	C617.060791,204.514313 615.983032,206.604736 614.074829,208.210083 
	C611.720703,210.190689 611.539551,212.446640 613.633362,214.678543 
	C617.065491,218.337036 616.968079,222.559769 615.386658,226.785645 
	C614.067627,230.310440 614.467346,232.630859 617.943604,234.679962 
	C622.016602,237.080795 623.412598,243.191727 620.920532,247.510101 
	C618.655945,251.434128 619.058899,254.507202 622.072327,257.840240 
	C625.942688,262.121124 624.492065,270.316162 619.639954,273.515503 
	C616.232727,275.762146 615.664856,279.015778 616.751892,282.630463 
	C618.872742,289.682220 615.549866,295.285034 608.495544,296.362671 
	C605.241760,296.859711 603.504150,298.539764 603.799133,302.076508 
	C604.310364,308.205566 598.713989,313.941101 592.782410,312.984344 
	C589.784668,312.500763 588.995178,313.861969 587.915955,316.606964 
	C599.581909,315.935272 609.219055,311.930695 617.344360,304.231598 
	C624.022095,297.904175 629.378052,290.426086 635.386292,283.515778 
	C641.923035,275.997528 648.915344,269.595245 660.154053,271.733948 
	C663.779541,272.423859 665.766296,269.128082 667.972473,267.035522 
	C686.106812,249.835342 704.071228,232.455887 722.219055,215.269989 
	C751.371826,187.662476 780.616638,160.152069 809.863708,132.644440 
	C811.288208,131.304642 812.985718,128.599869 815.163574,131.193710 
	C817.115356,133.518417 814.545837,135.121658 813.121216,136.565674 
	C780.944519,169.181763 748.757507,201.787781 716.517273,234.341080 
	C703.037231,247.952011 689.496643,261.505005 675.828552,274.926361 
	C672.882935,277.818787 671.890869,280.301575 673.299255,284.525360 
	C676.808777,295.050354 671.043579,308.843323 661.433289,314.427826 
	C654.034180,318.727386 650.077637,317.131195 648.100647,308.674469 
	C644.313232,310.454376 640.972900,311.858673 642.440979,317.340027 
	C643.668884,321.924561 639.199280,327.183350 634.266907,327.755005 
	C631.210205,328.109314 629.483826,329.211731 629.720825,332.829681 
	C630.121521,338.944702 623.722534,343.463165 617.815308,341.345520 
	C614.134644,340.026123 612.163940,341.184479 611.205933,344.819794 
	C609.970154,349.509155 602.449890,353.402985 598.455688,350.590851 
	C592.746460,346.571228 588.169800,349.955566 582.791016,350.802765 
	C583.737854,354.716888 586.721008,355.855316 589.021851,357.544342 
	C600.349060,365.859558 613.007996,370.544220 627.116150,370.692017 
	C646.406189,370.894135 658.232849,357.850952 656.442261,338.671600 
	C656.195068,336.023315 655.804749,333.340912 655.990173,330.710236 
	C656.315857,326.089020 659.475281,324.776367 663.266479,327.493683 
	C665.061157,328.779938 666.394775,330.472076 667.317200,332.483948 
	C673.694641,346.393616 673.693237,360.017487 665.410400,373.226105 
	C664.568420,374.568695 664.392029,375.952301 664.177795,377.453247 
	C663.569702,381.715271 659.778503,384.980835 655.609802,384.694580 
	C652.222595,384.461945 650.360901,385.851013 649.340515,389.000031 
	C647.629211,394.281281 642.538086,396.612579 637.533142,394.243896 
	C634.370605,392.747192 632.260254,393.359528 630.361694,396.186127 
	C627.043213,401.126587 619.984680,401.627747 616.438660,396.959991 
	C613.553101,393.161591 611.452454,392.975250 608.258179,396.726837 
	C604.998596,400.555084 596.268677,398.595642 594.109009,393.942474 
	C591.865723,389.109192 590.396912,388.660370 586.054443,391.481079 
	C581.254272,394.599152 573.575806,391.250549 573.116028,385.450500 
	C572.815796,381.662201 570.676758,381.417816 568.129272,381.792389 
	C559.073914,383.123749 557.019043,382.137238 553.580139,374.230621 
	C552.409973,371.540192 543.358948,368.289368 539.653809,369.436798 
	C535.650635,370.676514 535.190491,374.104126 535.450867,377.544983 
	C536.517090,391.633911 537.199463,405.757660 541.458801,419.425629 
	C548.271301,441.287201 568.146790,443.349274 581.147888,436.863464 
	C589.820312,432.537079 590.893799,423.921265 592.534241,415.777161 
	C593.108948,412.923676 593.037048,409.681305 596.735352,409.417755 
	C600.362671,409.159241 601.372437,412.527954 602.103027,415.106201 
	C607.131531,432.853546 597.807922,451.476379 582.531067,458.140778 
	C576.945618,460.577332 570.837219,461.270844 565.239075,464.089905 
	C561.342102,466.052277 556.113525,466.097748 552.921265,460.960205 
	C551.234497,458.245514 547.971558,457.387085 545.454224,458.828674 
	C541.421143,461.138245 538.155762,460.089142 534.386719,457.870605 
M468.940979,94.989693 
	C477.888336,94.989693 486.835724,94.989693 495.783081,94.989693 
	C486.520752,94.039726 477.256927,93.113228 467.131348,95.021896 
	C460.858490,94.930786 454.831024,96.127785 449.034088,98.539658 
	C455.357452,97.357124 461.680817,96.174599 468.940979,94.989693 
M551.404846,217.801147 
	C552.634277,214.519684 553.442566,211.163879 553.952637,207.671097 
	C554.783875,201.979538 555.241638,196.277466 560.143372,191.837555 
	C563.328308,188.952744 560.768372,183.132111 556.393250,182.373001 
	C551.973938,181.606232 547.510986,180.989151 543.041077,180.634659 
	C527.344177,179.389755 511.773895,179.244720 496.936249,185.903305 
	C490.574646,188.758133 483.811096,189.803391 476.942780,188.148682 
	C472.752441,187.139160 468.698334,185.554459 464.597443,184.184982 
	C446.519623,178.148056 428.145325,179.327454 409.787140,182.238800 
	C403.825043,183.184296 402.426300,188.591461 406.723572,192.862030 
	C408.985565,195.110001 410.035431,197.675797 410.602966,200.727371 
	C411.694519,206.596359 412.073944,212.698547 414.687592,218.155975 
	C423.144379,235.814377 452.313721,238.638657 465.549408,223.281601 
	C470.464966,217.578217 473.059296,210.766037 475.638336,203.923233 
	C476.881378,200.625107 478.801849,198.407043 482.453186,198.356277 
	C486.136078,198.305054 488.820435,200.036224 490.264801,203.493576 
	C491.291229,205.950577 492.290894,208.419235 493.267242,210.896606 
	C498.484833,224.136108 507.741028,231.953323 522.271240,233.386642 
	C533.353516,234.479828 546.139832,228.180939 551.404846,217.801147 
M505.237335,96.405785 
	C513.604492,97.994148 521.953064,99.666740 530.161926,101.975143 
	C520.861572,98.203552 511.329041,95.476006 501.170074,95.563126 
	C502.282349,95.790779 503.394623,96.018440 505.237335,96.405785 
z"/>
<path fill="#000000" opacity="1.000000" stroke="none" 
	d="
M469.854065,195.834595 
	C472.931183,219.002151 453.670868,236.372025 430.568146,228.266251 
	C417.725250,223.760208 410.267761,204.158630 416.021515,191.747711 
	C417.546753,188.457809 420.185608,186.696274 423.446869,185.585968 
	C436.721252,181.066559 449.674561,182.697876 462.388763,187.765976 
	C465.901825,189.166351 468.587280,191.626587 469.854065,195.834595 
z"/>
<path fill="#000000" opacity="1.000000" stroke="none" 
	d="
M551.191101,202.890991 
	C550.746277,206.304337 550.572327,209.323303 549.849731,212.204666 
	C546.618225,225.089996 535.905457,231.324921 520.962280,230.086670 
	C503.266266,228.620346 494.098572,209.817734 495.843811,197.241638 
	C496.376801,193.400848 498.243134,190.000656 501.783112,188.504211 
	C514.494629,183.130646 527.678284,180.904922 541.146118,185.198166 
	C549.242188,187.779007 551.216919,191.778091 551.191101,202.890991 
z"/>
</svg>